<svg width="249" height="218" viewBox="0 0 249 218" fill="none" xmlns="http://www.w3.org/2000/svg">
<path d="M112.084 218C149.988 218 180.715 216.447 180.715 214.531C180.715 212.616 149.988 211.063 112.084 211.063C74.1811 211.063 43.4543 212.616 43.4543 214.531C43.4543 216.447 74.1811 218 112.084 218Z" fill="#E6E6E6"/>
<path d="M34.0578 68.5062C52.8673 68.5062 68.1155 53.1705 68.1155 34.2531C68.1155 15.3356 52.8673 0 34.0578 0C15.2482 0 0 15.3356 0 34.2531C0 53.1705 15.2482 68.5062 34.0578 68.5062Z" fill="#E6E6E6"/>
<path d="M34.0577 62.7973C49.7324 62.7973 62.4392 50.0176 62.4392 34.2531C62.4392 18.4885 49.7324 5.70885 34.0577 5.70885C18.3831 5.70885 5.67627 18.4885 5.67627 34.2531C5.67627 50.0176 18.3831 62.7973 34.0577 62.7973Z" fill="#0F7DE2"/>
<path d="M124.5 68.5062C143.31 68.5062 158.558 53.1705 158.558 34.2531C158.558 15.3356 143.31 0 124.5 0C105.69 0 90.4422 15.3356 90.4422 34.2531C90.4422 53.1705 105.69 68.5062 124.5 68.5062Z" fill="#E6E6E6"/>
<path d="M124.5 62.7973C140.175 62.7973 152.881 50.0176 152.881 34.2531C152.881 18.4885 140.175 5.70885 124.5 5.70885C108.825 5.70885 96.1186 18.4885 96.1186 34.2531C96.1186 50.0176 108.825 62.7973 124.5 62.7973Z" fill="white"/>
<path d="M214.942 68.5062C233.752 68.5062 249 53.1705 249 34.2531C249 15.3356 233.752 0 214.942 0C196.133 0 180.884 15.3356 180.884 34.2531C180.884 53.1705 196.133 68.5062 214.942 68.5062Z" fill="#E6E6E6"/>
<path d="M214.942 62.7973C230.617 62.7973 243.324 50.0176 243.324 34.2531C243.324 18.4885 230.617 5.70885 214.942 5.70885C199.268 5.70885 186.561 18.4885 186.561 34.2531C186.561 50.0176 199.268 62.7973 214.942 62.7973Z" fill="white"/>
<path d="M31.4254 45.981L23.157 35.2892L27.9653 31.5276L31.8803 36.5903L45.1059 22.5493L49.5282 26.7632L31.4254 45.981Z" fill="white"/>
<path d="M94.4075 41.2377C92.1708 35.8047 91.8077 30.677 94.9607 26.1222C95.0167 24.5918 95.3778 23.0882 96.0225 21.7008C96.6672 20.3133 97.5823 19.0702 98.7137 18.0451C99.8451 17.0201 101.17 16.234 102.609 15.7335C104.048 15.2331 105.572 15.0284 107.092 15.1316L109.148 15.2713C111.27 15.41 113.311 16.1467 115.036 17.3972C116.761 18.6477 118.102 20.3615 118.904 22.3424C122.738 31.9044 122.858 44.6128 121.902 58.2342H93.7854C95.4553 51.864 96.3127 45.8852 94.4075 41.2377Z" fill="#2F2E41"/>
<path d="M58.0983 57.907L50.6682 54.5502C49.9279 54.2157 49.2677 53.7251 48.7324 53.1116C48.1971 52.4981 47.7992 51.776 47.5657 50.9942C47.3322 50.2125 47.2685 49.3894 47.3789 48.5808C47.4893 47.7721 47.7713 46.9968 48.2058 46.3073C48.6862 45.5449 49.34 44.9082 50.1132 44.4499C50.8864 43.9915 51.7568 43.7246 52.6527 43.6711C53.5487 43.6176 54.4444 43.779 55.2661 44.1421C56.0878 44.5053 56.8119 45.0596 57.3787 45.7596L60.8113 49.9985L76.8143 64.2729L87.452 57.1333L92.2733 65.3543L75.0174 75.8375L58.0983 57.907Z" fill="#9F616A"/>
<path d="M91.4984 67.7725L85.6324 56.4836L108.474 46.2511L108.672 48.4104C108.854 50.3974 108.516 52.3978 107.693 54.2132C106.869 56.0286 105.588 57.5959 103.976 58.7599L91.4984 67.7725Z" fill="#E2F149"/>
<path d="M121.098 45.5766L97.8021 64.967L96.4632 63.0818L102.89 51.5014L105.835 50.1549C106.541 47.1478 104.739 43.1151 102.354 38.8438L113.601 37.228C114.144 40.8965 116.616 43.6917 121.098 45.5766Z" fill="#9F616A"/>
<path d="M149.215 179.424L145.332 185.214L114.404 167.574L118.689 146.299L149.215 179.424Z" fill="#2F2E41"/>
<path d="M108.379 207.028L102.086 204.201L100.48 130.14L94.4548 89.8782L117.885 85.4346L122.705 95.9377C134.55 112.276 117.283 162.339 108.379 207.028Z" fill="#2F2E41"/>
<path d="M108.886 206.022L110.178 208.848C110.42 209.38 110.536 209.96 110.516 210.544C110.496 211.128 110.341 211.7 110.063 212.213C109.785 212.726 109.392 213.167 108.914 213.5C108.437 213.834 107.889 214.05 107.313 214.133L90.2428 216.585C89.4035 216.706 88.5492 216.517 87.8378 216.053C87.1265 215.589 86.6062 214.882 86.3733 214.062C86.1589 213.307 86.2009 212.502 86.4926 211.774C86.7843 211.046 87.3091 210.436 87.984 210.042L102.325 202.823L108.886 206.022Z" fill="#2F2E41"/>
<path d="M148.416 178.33L151.5 178.102C152.079 178.059 152.661 178.153 153.198 178.376C153.735 178.6 154.213 178.946 154.594 179.387C154.974 179.829 155.247 180.354 155.391 180.92C155.534 181.486 155.544 182.079 155.42 182.65L151.732 199.591C151.551 200.424 151.076 201.163 150.395 201.671C149.714 202.179 148.873 202.421 148.028 202.354V202.354C147.25 202.292 146.514 201.971 145.938 201.441C145.362 200.912 144.978 200.204 144.847 199.43L143.14 183.393L148.416 178.33Z" fill="#2F2E41"/>
<path d="M106.371 42.6142C112.286 42.6142 117.082 37.7912 117.082 31.8418C117.082 25.8923 112.286 21.0693 106.371 21.0693C100.455 21.0693 95.6598 25.8923 95.6598 31.8418C95.6598 37.7912 100.455 42.6142 106.371 42.6142Z" fill="#9F616A"/>
<path d="M117.35 87.0504L94.0532 91.898L93.5176 76.278C90.1443 72.6861 98.0119 58.3004 100.748 51.5014L104.229 50.4242L98.3376 61.1966L118.956 44.2301L122.973 45.3073L124.044 64.967L117.35 87.0504Z" fill="#E2F149"/>
<path d="M118.956 96.4763L113.904 102.902C113.401 103.543 112.766 104.067 112.044 104.439C111.322 104.811 110.528 105.022 109.718 105.059C108.907 105.096 108.098 104.957 107.345 104.652C106.592 104.346 105.914 103.882 105.355 103.29V103.29C104.737 102.635 104.283 101.842 104.03 100.976C103.777 100.11 103.733 99.1954 103.9 98.3086C104.067 97.4218 104.442 96.5876 104.993 95.875C105.544 95.1624 106.255 94.5917 107.068 94.21L111.994 91.8981L129.667 79.7791L125.383 67.6601L134.487 64.967L140.378 84.3574L118.956 96.4763Z" fill="#9F616A"/>
<path d="M119.893 56.0798H100.488C101.217 52.3907 103.171 49.0439 108.517 46.6443C112.416 39.1514 114.081 32.3549 108.517 27.8138C102.163 26.3414 99.7013 23.6677 100.488 19.9921L111.863 18.1069C121.218 26.4864 121.325 40.7902 119.893 56.0798Z" fill="#2F2E41"/>
<path d="M136.629 66.3135L124.312 69.2759L120.027 44.4994L122.158 44.8341C124.118 45.1422 125.964 45.9602 127.513 47.207C129.062 48.4538 130.26 50.0861 130.989 51.9421L136.629 66.3135Z" fill="#E2F149"/>
</svg>
