<svg width="16" height="16" viewBox="0 0 16 16" fill="none" xmlns="http://www.w3.org/2000/svg">
<path d="M1.76837 2H14.2316C15.4074 2 16 2.55497 16 3.68372V11.6038C16 12.7231 15.4074 13.2875 14.2316 13.2875H1.76837C0.592592 13.2875 0 12.7231 0 11.6038V3.68372C0 2.55497 0.592592 2 1.76837 2ZM7.9953 10.0894L14.3351 4.88771C14.5608 4.69959 14.7396 4.2669 14.4574 3.88125C14.1846 3.49559 13.6861 3.48618 13.3568 3.72134L7.9953 7.35215L2.64315 3.72134C2.31393 3.48618 1.8154 3.49559 1.54262 3.88125C1.26044 4.2669 1.43915 4.69959 1.6649 4.88771L7.9953 10.0894Z" fill="white"/>
</svg>
