<svg width="16" height="16" viewBox="0 0 16 16" fill="none" xmlns="http://www.w3.org/2000/svg">
<g clip-path="url(#clip0)">
<path d="M15.1169 16.0001C15.6046 16.0001 16 15.6047 16 15.117V0.883062C16 0.395312 15.6046 0 15.1169 0H0.883062C0.39525 0 0 0.395312 0 0.883062V15.117C0 15.6047 0.39525 16.0001 0.883062 16.0001H15.1169" fill="#395185"/>
<path d="M11.0397 16.0001V9.804H13.1195L13.4309 7.38932H11.0397V5.84757C11.0397 5.14844 11.2339 4.672 12.2364 4.672L13.5151 4.67144V2.51175C13.2939 2.48231 12.5349 2.41656 11.6519 2.41656C9.80825 2.41656 8.54612 3.54188 8.54612 5.6085V7.38932H6.461V9.804H8.54612V16.0001H11.0397" fill="white"/>
</g>
<defs>
<clipPath id="clip0">
<rect width="16" height="16" fill="white"/>
</clipPath>
</defs>
</svg>
