<svg width="16" height="16" viewBox="0 0 16 16" fill="none" xmlns="http://www.w3.org/2000/svg">
<path d="M14.537 6.69431H14V6.66665H8.00001V9.33331H11.7677C11.218 10.8856 9.74101 12 8.00001 12C5.79101 12 4.00001 10.209 4.00001 7.99998C4.00001 5.79098 5.79101 3.99998 8.00001 3.99998C9.01968 3.99998 9.94734 4.38465 10.6537 5.01298L12.5393 3.12731C11.3487 2.01765 9.75601 1.33331 8.00001 1.33331C4.31834 1.33331 1.33334 4.31831 1.33334 7.99998C1.33334 11.6816 4.31834 14.6666 8.00001 14.6666C11.6817 14.6666 14.6667 11.6816 14.6667 7.99998C14.6667 7.55298 14.6207 7.11665 14.537 6.69431Z" fill="#FFC107"/>
<path d="M2.10199 4.89698L4.29232 6.50331C4.88499 5.03598 6.32032 3.99998 7.99999 3.99998C9.01966 3.99998 9.94732 4.38465 10.6537 5.01298L12.5393 3.12731C11.3487 2.01765 9.75599 1.33331 7.99999 1.33331C5.43932 1.33331 3.21866 2.77898 2.10199 4.89698Z" fill="#FF3D00"/>
<path d="M8 14.6667C9.722 14.6667 11.2867 14.0077 12.4697 12.936L10.4063 11.19C9.71452 11.7161 8.86915 12.0007 8 12C6.266 12 4.79367 10.8943 4.239 9.35132L2.065 11.0263C3.16834 13.1853 5.409 14.6667 8 14.6667Z" fill="#4CAF50"/>
<path d="M14.537 6.69435H14V6.66669H8V9.33335H11.7677C11.5047 10.0722 11.0311 10.7177 10.4053 11.1904L10.4063 11.1897L12.4697 12.9357C12.3237 13.0684 14.6667 11.3334 14.6667 8.00002C14.6667 7.55302 14.6207 7.11669 14.537 6.69435Z" fill="#1976D2"/>
</svg>
